# xmcd
#
# Track frame offsets: 
#        182
#        19400
#        35012
#        60600
#        80087
#        106550
#        124237
#        141162
#        155612
#        173150
#
# Disc length: 2529 seconds
#
# Revision: 0
# Processed by: cddbd v1.5.2PL0 Copyright (c) Steve Scherf et al.
# Submitted via: ExactAudioCopy v1.0b1
#
DISCID=8509df0a
DTITLE=Joe Cocker - Especial
DYEAR=1900
DGENRE=Blues
TTITLE0=You can leave your hat on
TTITLE1=Shelter me
TTITLE2=Don´t drink the water
TTITLE3=Heart of the matter
TTITLE4=Inner city blues
TTITLE5=Civilized man
TTITLE6=There goes my baby
TTITLE7=I love the night
TTITLE8=Crazy in love
TTITLE9=Hold on (I feel our love is changing)
EXTD=
EXTT0=
EXTT1=
EXTT2=
EXTT3=
EXTT4=
EXTT5=
EXTT6=
EXTT7=
EXTT8=
EXTT9=
PLAYORDER=
